<svg width="124" height="19" viewBox="0 0 124 19" fill="none" xmlns="http://www.w3.org/2000/svg">
<path d="M57.2888 15.9262V15.9127C57.2888 15.9127 55.2824 12.9595 55.2824 12.9475C54.9934 12.514 54.4952 12.2656 53.9849 12.2656C53.4746 12.2656 52.9885 12.5155 52.6874 12.9475L50.7864 15.9262V15.9398L49.5281 17.9085C49.3309 18.2111 49.4227 18.6175 49.7253 18.8147C49.8261 18.8779 49.9525 18.917 50.0684 18.9185C50.2731 18.914 50.4763 18.8101 50.6043 18.6175L51.679 16.9377H56.4128L57.5537 18.631C57.7509 18.9321 58.1573 18.9983 58.4583 18.8011C58.7593 18.6039 58.8256 18.1975 58.6284 17.895L57.2903 15.9262H57.2888ZM52.555 15.6237L53.8013 13.682C53.8675 13.5766 53.9714 13.5646 54.024 13.5646C54.0767 13.5646 54.1821 13.5781 54.2468 13.682L55.5578 15.6237H52.555Z" fill="#5C5C5C"/>
<path d="M40.36 13.5635C40.4022 13.5725 40.4473 13.577 40.4925 13.577H46.1444C46.5117 13.577 46.8007 13.288 46.8007 12.9208C46.8007 12.5535 46.5117 12.2645 46.1444 12.2645H40.8643C40.7649 12.2555 40.643 12.251 40.4925 12.251C39.2989 12.251 37.2925 12.251 37.2925 15.5849C37.2925 18.9189 39.2989 18.9174 40.4925 18.9174H46.1444C46.5117 18.9174 46.8007 18.6284 46.8007 18.2612C46.8007 17.8939 46.5117 17.6049 46.1444 17.6049H40.4925C39.2733 17.6049 38.605 17.6049 38.605 15.5834C38.605 13.562 39.2251 13.565 40.36 13.562V13.5635Z" fill="#5C5C5C"/>
<path d="M34.133 12.2646H25.5972C25.2299 12.2646 24.9409 12.5536 24.9409 12.9209C24.9409 13.2882 25.2299 13.5772 25.5972 13.5772H29.2036V18.2613C29.2036 18.6285 29.4926 18.9175 29.8598 18.9175C30.2271 18.9175 30.5161 18.6285 30.5161 18.2613V13.5772H34.1345C34.5018 13.5772 34.7908 13.2882 34.7908 12.9209C34.7908 12.5536 34.5018 12.2646 34.1345 12.2646H34.133Z" fill="#5C5C5C"/>
<path d="M21.7934 12.5396C21.5842 12.2371 21.1778 12.1588 20.8752 12.3696L14.1621 17.004V12.9205C14.1621 12.5532 13.8731 12.2642 13.5059 12.2642C13.1386 12.2642 12.8496 12.5532 12.8496 12.9205V18.2608C12.8496 18.5724 13.0588 18.8253 13.3463 18.896C13.3478 18.896 13.3508 18.896 13.3523 18.8975C13.3674 18.9005 13.3824 18.9035 13.3975 18.9066C13.4336 18.9126 13.4697 18.9171 13.5059 18.9171H13.5194C13.5555 18.9171 13.5932 18.9126 13.6308 18.905C13.6413 18.9035 13.6504 18.9005 13.6594 18.8975C13.685 18.8915 13.7091 18.884 13.7347 18.8749C13.7512 18.8689 13.7663 18.8629 13.7828 18.8554C13.8069 18.8448 13.8295 18.8313 13.8536 18.8177C13.8611 18.8132 13.8701 18.8087 13.8792 18.8027C13.8822 18.8012 13.8852 18.7997 13.8882 18.7982L20.5877 14.1728V18.2608C20.5877 18.6281 20.8767 18.9171 21.244 18.9171C21.6113 18.9171 21.9002 18.6281 21.9002 18.2608V13.0394C21.9334 12.8723 21.9002 12.6932 21.7949 12.5396H21.7934Z" fill="#5C5C5C"/>
<path d="M65.3518 12.6973C65.4827 12.6973 65.6137 12.6582 65.7326 12.5799L67.8428 11.0702C68.1439 10.8595 68.2101 10.441 68.0009 10.152C67.7917 9.84951 67.3717 9.78478 67.0827 9.994L64.971 11.5037C64.6699 11.7144 64.6037 12.1344 64.8129 12.4219C64.9439 12.6055 65.141 12.6973 65.3503 12.6973H65.3518Z" fill="#5C5C5C"/>
<path d="M70.8202 12.5406C70.611 12.2381 70.2046 12.1598 69.9021 12.3705L63.189 17.005V12.9214C63.189 12.5542 62.9 12.2652 62.5327 12.2652C62.1655 12.2652 61.8765 12.5542 61.8765 12.9214V18.2618C61.8765 18.5749 62.0872 18.8293 62.3747 18.8985C62.3747 18.8985 62.3762 18.8985 62.3777 18.8985C62.3927 18.9015 62.4078 18.9045 62.4228 18.9075C62.459 18.9135 62.4936 18.9181 62.5312 18.9181H62.5448C62.5809 18.9181 62.6185 18.9135 62.6562 18.906C62.6667 18.9045 62.6757 18.9015 62.6863 18.8985C62.7118 18.8925 62.7359 18.885 62.7615 18.8759C62.7781 18.8699 62.7931 18.8639 62.8097 18.8564C62.8338 18.8458 62.8563 18.8323 62.8804 18.8187C62.8895 18.8142 62.8985 18.8097 62.906 18.8037C62.909 18.8022 62.912 18.8007 62.915 18.7992L69.6146 14.1737V18.2618C69.6146 18.6291 69.9036 18.9181 70.2708 18.9181C70.6381 18.9181 70.9271 18.6291 70.9271 18.2618V13.0403C70.9602 12.8733 70.9271 12.6926 70.8217 12.5406H70.8202Z" fill="#5C5C5C"/>
<path d="M83.2243 12.2646H74.6885C74.3212 12.2646 74.0322 12.5536 74.0322 12.9209C74.0322 13.2882 74.3212 13.5772 74.6885 13.5772H78.2949V18.2613C78.2949 18.6285 78.5839 18.9175 78.9512 18.9175C79.3184 18.9175 79.6074 18.6285 79.6074 18.2613V13.5772H83.2259C83.5931 13.5772 83.8821 13.2882 83.8821 12.9209C83.8821 12.5536 83.5931 12.2646 83.2259 12.2646H83.2243Z" fill="#5C5C5C"/>
<path d="M9.41639 13.3525C9.66625 13.0771 9.63916 12.6571 9.36371 12.4208C9.08827 12.1709 8.66832 12.198 8.43201 12.4735C7.88111 13.0906 6.17725 14.7177 4.78647 14.9269H1.31252V12.919C1.31252 12.5518 1.02352 12.2628 0.656258 12.2628C0.288994 12.2628 0 12.5518 0 12.919V18.2594C0 18.6267 0.288994 18.9156 0.656258 18.9156C1.02352 18.9156 1.31252 18.6267 1.31252 18.2594V16.2379H4.80001C6.18929 16.4472 7.89466 18.0758 8.44555 18.6914C8.56296 18.8359 8.74659 18.9141 8.93022 18.9141C9.08826 18.9141 9.23126 18.8479 9.36371 18.7441C9.62561 18.4942 9.65271 18.0878 9.41639 17.8124C9.35017 17.7371 8.17613 16.4155 6.71008 15.5787C8.17613 14.7403 9.35017 13.4263 9.41639 13.351V13.3525Z" fill="#5C5C5C"/>
<path fill-rule="evenodd" clip-rule="evenodd" d="M122.575 6.5094C122.11 6.02925 121.454 5.71617 120.649 5.71617V5.72972H87.8284L82.4911 2.31748C80.0918 0.782195 77.0107 0.782195 74.6115 2.31748L70.9795 4.63997C69.7467 5.42717 70.2976 7.34327 71.7667 7.34327H85.2335L101.086 17.4746C104.273 19.5081 108.35 19.5081 111.536 17.4746L122.104 10.7164C123.707 9.69285 123.673 7.64129 122.575 6.5094ZM73.3396 5.41664L75.65 3.93855C76.085 3.6601 76.5396 3.45088 77.0137 3.30939C77.5044 3.16339 78.0177 3.09114 78.552 3.09114C79.0864 3.09114 79.5966 3.16339 80.0858 3.30939C80.5629 3.45088 81.019 3.6616 81.4555 3.94006L83.766 5.41664H73.3396ZM121.395 8.719C121.34 8.865 121.23 8.98843 121.067 9.09379L110.499 15.8505C109.861 16.2584 109.194 16.564 108.496 16.7672C107.798 16.9719 107.069 17.0742 106.311 17.0742C105.552 17.0742 104.819 16.9719 104.119 16.7657C103.424 16.5625 102.758 16.2569 102.122 15.8505L89.296 7.65484H120.814C120.932 7.67441 121.033 7.71504 121.117 7.77826C121.245 7.87309 121.338 8.01608 121.394 8.20874C121.45 8.3999 121.45 8.56999 121.394 8.719H121.395Z" fill="#5C5C5C"/>
<path fill-rule="evenodd" clip-rule="evenodd" d="M115.643 9.87626L107.426 15.1083C107.202 15.2512 107.136 15.5493 107.279 15.7735C107.422 15.9978 107.72 16.064 107.944 15.9211L116.161 10.6891C116.385 10.5461 116.451 10.248 116.308 10.0238C116.165 9.7995 115.867 9.73327 115.643 9.87626Z" fill="#5C5C5C"/>
<path fill-rule="evenodd" clip-rule="evenodd" d="M111.276 9.86947C111.133 9.6452 110.835 9.57897 110.611 9.72196L103.609 14.1788C103.384 14.3218 103.318 14.6198 103.461 14.8441C103.604 15.0684 103.902 15.1346 104.127 14.9916L111.129 10.5333C111.353 10.3903 111.419 10.0922 111.276 9.86797V9.86947Z" fill="#5C5C5C"/>
<path fill-rule="evenodd" clip-rule="evenodd" d="M106.007 9.93685C105.864 9.71258 105.566 9.64635 105.341 9.78935L100.398 12.9367C100.174 13.0797 100.108 13.3777 100.251 13.602C100.394 13.8262 100.692 13.8925 100.916 13.7495L105.859 10.6036C106.083 10.4607 106.15 10.1626 106.007 9.93836V9.93685Z" fill="#5C5C5C"/>
<path fill-rule="evenodd" clip-rule="evenodd" d="M112.62 2.93811C112.875 3.31741 113.433 3.31741 113.687 2.93811L114.986 0.999438C115.272 0.573473 114.967 0 114.454 0H111.856C111.342 0 111.037 0.573473 111.323 0.999438L112.622 2.93811H112.62Z" fill="#5C5C5C"/>
</svg>
