<svg width="18" height="18" viewBox="0 0 18 18" fill="none" xmlns="http://www.w3.org/2000/svg">
<path d="M10.4416 1.9252L11.9083 4.85853C12.1083 5.26686 12.6416 5.65853 13.0916 5.73353L15.7499 6.17519C17.4499 6.45853 17.8499 7.69186 16.6249 8.90853L14.5583 10.9752C14.2083 11.3252 14.0166 12.0002 14.1249 12.4835L14.7166 15.0419C15.1833 17.0669 14.1083 17.8502 12.3166 16.7919L9.82492 15.3169C9.37492 15.0502 8.63326 15.0502 8.17492 15.3169L5.68326 16.7919C3.89992 17.8502 2.81659 17.0585 3.28326 15.0419L3.87492 12.4835C3.98326 12.0002 3.79159 11.3252 3.44159 10.9752L1.37492 8.90853C0.158257 7.69186 0.549924 6.45853 2.24992 6.17519L4.90826 5.73353C5.34992 5.65853 5.88326 5.26686 6.08326 4.85853L7.54992 1.9252C8.34992 0.333529 9.64992 0.333529 10.4416 1.9252Z" fill="#D6DAE2"/>
</svg>
