<svg width="18" height="18" viewBox="0 0 18 18" fill="none" xmlns="http://www.w3.org/2000/svg">
<g clip-path="url(#clip0_4_1727)">
<path d="M9 0C13.9706 0 18 4.02944 18 9C18 13.9706 13.9706 18 9 18C4.02944 18 0 13.9706 0 9C0 4.02944 4.02944 0 9 0ZM12.6797 5.41797C12.3412 5.42393 11.8216 5.60496 9.32227 6.64453C8.44682 7.00867 6.69751 7.76235 4.07422 8.90527C3.64817 9.0747 3.42461 9.24028 3.4043 9.40234C3.36541 9.7134 3.8134 9.80998 4.37695 9.99316C4.83648 10.1425 5.45502 10.3173 5.77637 10.3242C6.06774 10.3304 6.39296 10.2104 6.75195 9.96387C9.19979 8.31151 10.4651 7.47541 10.5479 7.45508C10.6038 7.44237 10.6818 7.42608 10.7344 7.47266C10.7869 7.51933 10.7819 7.60784 10.7764 7.63184C10.7318 7.82185 8.4294 9.91704 8.29688 10.0547C7.79052 10.5806 7.21426 10.9018 8.10254 11.4873C8.87143 11.994 9.31921 12.3177 10.1113 12.8369C10.6174 13.1687 11.0145 13.5618 11.5371 13.5137C11.7775 13.4914 12.0262 13.265 12.1523 12.5908C12.4505 10.9968 13.0364 7.54426 13.1719 6.12109C13.1837 5.99648 13.1682 5.83671 13.1562 5.7666C13.1443 5.69655 13.1194 5.59634 13.0283 5.52246C12.9205 5.4351 12.7541 5.41666 12.6797 5.41797Z" fill="white"/>
</g>
<defs>
<clipPath id="clip0_4_1727">
<rect width="18" height="18" fill="white"/>
</clipPath>
</defs>
</svg>
