<svg width="18" height="18" viewBox="0 0 18 18" fill="none" xmlns="http://www.w3.org/2000/svg">
<g clip-path="url(#clip0_4_1730)">
<path d="M16.7362 1.26375C15.4688 0 13.4325 0 9.375 0H8.625C4.5675 0 2.53125 0 1.26375 1.26375C-0.00375 2.5275 1.29767e-07 4.5675 1.29767e-07 8.625V9.375C1.29767e-07 13.4325 8.9407e-08 15.4688 1.26375 16.7362C2.5275 18.0037 4.5675 18 8.625 18H9.375C13.4475 18 15.4837 18 16.7512 16.7362C18.0187 15.4725 18 13.4325 18 9.375V8.625C18 4.5675 18 2.53125 16.7362 1.26375ZM12.915 12.9675C12.7189 12.2649 12.3195 11.6359 11.7671 11.1595C11.2147 10.6832 10.5338 10.3807 9.81 10.29V12.9675H9.5775C5.475 12.9675 3.135 10.155 3.0375 5.4675H5.0925C5.16 8.9025 6.675 10.3425 7.875 10.6575V5.475H9.81V8.4375C10.995 8.31 12.24 6.96 12.66 5.475H14.595C14.4395 6.24722 14.1261 6.97897 13.6743 7.62429C13.2226 8.26962 12.6424 8.81459 11.97 9.225C12.7196 9.59679 13.3819 10.1232 13.9132 10.7696C14.4445 11.416 14.8328 12.1676 15.0525 12.975L12.915 12.9675Z" fill="white"/>
</g>
<defs>
<clipPath id="clip0_4_1730">
<rect width="18" height="18" fill="white"/>
</clipPath>
</defs>
</svg>
