<svg width="18" height="18" viewBox="0 0 18 18" fill="none" xmlns="http://www.w3.org/2000/svg">
<path d="M0 18C0.193462 17.2926 0.377533 16.621 0.560853 15.9489C0.782114 15.1383 1.006 14.328 1.2205 13.5154C1.24147 13.428 1.23138 13.3359 1.19195 13.2551C0.327947 11.6864 -0.0477082 10.0042 0.102554 8.22657C0.317804 5.68188 1.43651 3.59173 3.41208 1.97153C4.51086 1.06666 5.81805 0.450251 7.21521 0.17815C11.3895 -0.652049 15.4045 1.48393 17.1246 5.23973C17.7666 6.64356 18.01 8.11988 17.8906 9.65218C17.5904 13.506 14.7403 16.7863 10.9665 17.6277C8.83917 18.1018 6.80424 17.8234 4.86173 16.8388C4.77507 16.7987 4.67751 16.7887 4.5845 16.8103C3.13184 17.186 1.68068 17.5661 0.229525 17.9459C0.164913 17.9617 0.0999243 17.976 0 18ZM2.15476 15.8693C2.24041 15.8486 2.30502 15.834 2.36926 15.8171C3.15813 15.6108 3.94701 15.4087 4.73588 15.1939C4.89516 15.1507 5.01575 15.1751 5.15474 15.2573C6.87411 16.2761 8.71295 16.5778 10.6645 16.1386C14.8342 15.1995 17.359 10.8043 16.0739 6.73071C14.903 3.01998 11.1979 0.870483 7.38651 1.69693C4.24303 2.38024 1.75243 5.13305 1.59541 8.60598C1.53042 10.0417 1.84559 11.4016 2.5969 12.63C2.83469 13.0188 2.87639 13.3437 2.73702 13.7667C2.51276 14.4497 2.34972 15.1533 2.15476 15.8693Z" fill="white"/>
<path d="M4.44531 6.91405C4.45846 6.16875 4.74959 5.55568 5.27589 5.04441C5.35235 4.96584 5.444 4.90364 5.54526 4.8616C5.64652 4.81956 5.75528 4.79855 5.86491 4.79986C5.99 4.79986 6.11622 4.81865 6.24057 4.80625C6.50352 4.78033 6.65379 4.90955 6.74582 5.13307C6.993 5.7251 7.24845 6.31413 7.47835 6.91292C7.52005 7.02149 7.49563 7.19504 7.43327 7.29609C7.26403 7.55767 7.07886 7.80858 6.8788 8.0474C6.75935 8.19541 6.74958 8.32689 6.84612 8.48917C7.57377 9.71081 8.5854 10.5992 9.91184 11.1233C10.0914 11.1943 10.2379 11.1661 10.3607 11.0106C10.5816 10.7318 10.8115 10.4606 11.0272 10.177C11.1511 10.0128 11.2961 9.9516 11.4802 10.0365C12.1188 10.337 12.7529 10.6375 13.3829 10.9527C13.449 10.9858 13.5102 11.0977 13.5129 11.1755C13.5384 11.8385 13.3457 12.3937 12.7548 12.7803C12.0193 13.2611 11.2469 13.3032 10.4257 13.0725C8.31944 12.4813 6.75521 11.1642 5.4994 9.42568C5.08618 8.85093 4.70527 8.2589 4.54449 7.55717C4.49415 7.34793 4.47687 7.1293 4.44531 6.91405Z" fill="white"/>
</svg>
