<svg width="47" height="14" viewBox="0 0 47 14" fill="none" xmlns="http://www.w3.org/2000/svg">
<g clip-path="url(#clip0_4_1890)">
<path d="M0 12.0107C0.00802596 11.965 0.0280908 11.9442 0.0441428 11.9152C0.798583 10.7565 1.55704 9.6019 2.31148 8.44319C2.40377 8.30199 2.50009 8.15663 2.5964 8.01542C2.63251 7.96559 2.62047 7.94067 2.57633 7.90745C2.1349 7.57935 1.71354 7.22634 1.34033 6.81519C0.762466 6.17562 0.397285 5.43222 0.288934 4.55592C0.200649 3.82913 0.240779 3.11065 0.497609 2.42124C0.79457 1.60724 1.33231 1.0175 2.06668 0.610501C2.65258 0.286562 3.28663 0.124592 3.94074 0.0498368C4.31796 0.00830614 4.69518 0 5.07642 0C5.93519 0 6.79798 0 7.65676 0C7.73301 0 7.74906 0.0249184 7.74906 0.0955206C7.74906 4.03263 7.74906 7.9739 7.74906 11.911C7.74906 11.9899 7.729 12.0107 7.65275 12.0107C7.03876 12.0107 6.42879 12.0107 5.81481 12.0107C5.73455 12.0107 5.71448 11.9899 5.71448 11.9069C5.71448 8.51795 5.71448 5.12904 5.71448 1.74429C5.71448 1.60724 5.73053 1.628 5.5981 1.628C5.21286 1.628 4.82761 1.61139 4.44638 1.64462C4.06515 1.67369 3.69194 1.75675 3.34682 1.93533C2.75692 2.23435 2.39173 2.71611 2.30345 3.38891C2.21918 4.01187 2.28338 4.62652 2.56429 5.19964C2.76895 5.6191 3.08197 5.9472 3.42708 6.24206C3.88055 6.62415 4.38217 6.93978 4.86373 7.28033C4.93596 7.33432 5.0082 7.38416 5.08846 7.434C5.14062 7.46722 5.14062 7.49214 5.10852 7.53782C4.65104 8.23554 4.19356 8.93325 3.73608 9.63512C3.23847 10.4034 2.73685 11.1676 2.23924 11.9359C2.20312 11.9941 2.163 12.0107 2.09879 12.0107C1.42862 12.0107 0.762466 12.0107 0.0922985 12.0107H0.00401298H0Z" fill="#E8452A"/>
<path d="M24.2384 6.84847C24.2384 7.99472 24.2384 9.14512 24.2384 10.2914C24.2384 10.3661 24.2504 10.3869 24.3267 10.3869C24.5675 10.3827 24.8123 10.3869 25.053 10.3869C25.1092 10.3869 25.1293 10.3952 25.1293 10.4616C25.1293 11.6203 25.1293 12.7791 25.1293 13.9378C25.1293 13.9918 25.1172 14.0042 25.0651 14.0042C24.4952 14.0042 23.9214 14.0042 23.3515 14.0042C23.2833 14.0042 23.2753 13.9793 23.2753 13.9211C23.2753 13.319 23.2753 12.7168 23.2753 12.1146C23.2753 12.0357 23.2592 12.0149 23.179 12.0149C21.7463 12.0149 20.3097 12.0149 18.8771 12.0149C18.8048 12.0149 18.7848 12.0273 18.7848 12.1063C18.7848 12.7126 18.7848 13.319 18.7848 13.9211C18.7848 13.9918 18.7647 14.0042 18.7005 14.0042C18.1387 14.0042 17.5769 14.0042 17.011 14.0042C16.9468 14.0042 16.9268 13.9876 16.9268 13.9211C16.9268 12.7749 16.9268 11.6245 16.9268 10.4783C16.9268 10.4077 16.9468 10.3869 17.015 10.3869C17.1675 10.391 17.32 10.3869 17.4765 10.3869C17.5367 10.3869 17.5648 10.3703 17.5889 10.3163C17.7936 9.85529 17.926 9.37354 18.0263 8.87932C18.1989 8.0404 18.2791 7.18902 18.3313 6.33349C18.3915 5.36167 18.3995 4.3857 18.3915 3.40973C18.3915 3.33082 18.4116 3.31836 18.4838 3.31836C20.3659 3.31836 22.252 3.31836 24.1341 3.31836C24.2183 3.31836 24.2304 3.34328 24.2304 3.42219C24.2304 4.56428 24.2304 5.70637 24.2304 6.84847H24.2384ZM19.4228 10.3786C19.4429 10.3786 19.4589 10.3827 19.475 10.3827C20.3739 10.3827 21.2728 10.3827 22.1757 10.3827C22.2399 10.3827 22.2399 10.3537 22.2399 10.308C22.2399 8.54292 22.2399 6.77787 22.2399 5.01697C22.2399 4.96298 22.2279 4.94636 22.1717 4.94636C21.5136 4.94636 20.8515 4.94636 20.1933 4.94636C20.1331 4.94636 20.1211 4.96298 20.1211 5.02112C20.1291 6.05523 20.081 7.08935 19.9485 8.11516C19.8683 8.74642 19.7599 9.36938 19.5673 9.97573C19.5232 10.1086 19.475 10.2374 19.4268 10.3744L19.4228 10.3786Z" fill="black"/>
<path d="M32.4249 9.75125V9.84677C32.4249 10.341 32.4249 10.8394 32.4249 11.3336C32.4249 11.4042 32.4009 11.4416 32.3487 11.4748C31.8752 11.7821 31.3535 11.969 30.8037 12.0728C30.1335 12.2016 29.4593 12.2223 28.7811 12.1227C28.0548 12.0188 27.3886 11.7613 26.8308 11.2422C26.4055 10.8477 26.1205 10.3618 25.9279 9.8094C25.6591 9.03277 25.5948 8.22708 25.6189 7.40892C25.635 6.8358 25.7112 6.26683 25.8798 5.71862C26.0925 5.01675 26.4255 4.39794 26.9753 3.91619C27.3967 3.55072 27.8782 3.3223 28.416 3.22263C29.1142 3.08973 29.8085 3.11049 30.4867 3.34306C31.2371 3.5964 31.7548 4.11969 32.0798 4.85478C32.3045 5.36146 32.4129 5.90136 32.4651 6.45371C32.5253 7.07667 32.4972 7.70379 32.5052 8.3309C32.5052 8.38904 32.4851 8.39735 32.437 8.3932C32.2323 8.3932 32.0236 8.3932 31.819 8.3932C30.4706 8.3932 29.1223 8.3932 27.7739 8.3932C27.6936 8.3932 27.6776 8.41812 27.6856 8.49287C27.7177 8.81681 27.7619 9.1366 27.8742 9.44392C28.0949 10.0503 28.5323 10.3825 29.1343 10.4947C29.7563 10.6109 30.3703 10.5486 30.9803 10.3825C31.4739 10.2496 31.9474 10.0544 32.3768 9.76786C32.3888 9.75956 32.4009 9.7554 32.4209 9.74295L32.4249 9.75125ZM29.0821 6.88563C29.5235 6.88563 29.961 6.88563 30.4024 6.88563C30.4345 6.88563 30.4746 6.9064 30.4746 6.83995C30.4746 6.43295 30.4546 6.02595 30.3261 5.63556C30.1496 5.09151 29.7844 4.80079 29.2386 4.78003C28.6527 4.75926 28.2113 5.00014 27.9505 5.5608C27.7659 5.95535 27.7137 6.37896 27.6856 6.80672C27.6816 6.87317 27.7017 6.88563 27.7619 6.88563C28.2033 6.88563 28.6407 6.88563 29.0821 6.88563Z" fill="#010101"/>
<path d="M9.43042 7.67469C9.43042 6.25434 9.43042 4.83814 9.43042 3.41779C9.43042 3.33888 9.44647 3.31812 9.52272 3.31812C10.1287 3.31812 10.7306 3.31812 11.3366 3.31812C11.4088 3.31812 11.4329 3.33473 11.4329 3.41364C11.4329 4.49759 11.4329 5.58154 11.4329 6.66549C11.4329 6.74855 11.457 6.76101 11.5292 6.76101C12.3599 6.76101 13.1906 6.76101 14.0213 6.76101C14.0975 6.76101 14.1096 6.73609 14.1096 6.66549C14.1096 5.58154 14.1096 4.49759 14.1096 3.41364C14.1096 3.33473 14.1296 3.31396 14.2059 3.31396C14.8158 3.31396 15.4258 3.31396 16.0358 3.31396C16.096 3.31396 16.116 3.32642 16.116 3.39287C16.116 6.23773 16.116 9.08258 16.116 11.9274C16.116 11.998 16.092 12.0022 16.0358 12.0022C15.4218 12.0022 14.8118 12.0022 14.1978 12.0022C14.1256 12.0022 14.1136 11.9814 14.1136 11.9108C14.1136 10.7646 14.1136 9.61417 14.1136 8.46793C14.1136 8.38902 14.0935 8.36825 14.0173 8.36825C13.1946 8.36825 12.3679 8.36825 11.5453 8.36825C11.465 8.36825 11.4369 8.38486 11.4409 8.47623C11.4409 9.62248 11.4409 10.7646 11.4449 11.9108C11.4449 11.9856 11.4249 12.0063 11.3526 12.0063C10.7467 12.0063 10.1367 12.0063 9.53074 12.0063C9.45851 12.0063 9.43845 11.9897 9.43845 11.915C9.43845 10.4988 9.43845 9.08258 9.43845 7.66638L9.43042 7.67469Z" fill="black"/>
<path d="M35.8639 7.7702C35.8438 7.80758 35.8518 7.84081 35.8518 7.86988C35.8518 9.21547 35.8518 10.5611 35.8518 11.9108C35.8518 11.9939 35.8318 12.0146 35.7515 12.0146C35.1456 12.0146 34.5356 12.0146 33.9296 12.0146C33.8654 12.0146 33.8494 11.998 33.8494 11.9316C33.8494 9.09088 33.8494 6.25018 33.8494 3.40948C33.8494 3.33472 33.8694 3.32227 33.9377 3.32227C34.5476 3.32227 35.1576 3.32227 35.7676 3.32227C35.8398 3.32227 35.8518 3.34303 35.8518 3.41363C35.8518 4.67617 35.8518 5.9387 35.8518 7.20123V7.32998C35.8839 7.28429 35.904 7.25938 35.9241 7.23446C36.823 5.95531 37.7219 4.68032 38.6208 3.40117C38.6609 3.34718 38.697 3.32642 38.7612 3.32642C39.3712 3.32642 39.9812 3.32642 40.5912 3.32642H40.6754C40.6754 3.36795 40.6473 3.38456 40.6313 3.40948C39.7284 4.69278 38.8214 5.98023 37.9145 7.26353C37.8744 7.32167 37.8744 7.3549 37.9145 7.41304C38.9458 8.9123 39.9772 10.4157 41.0085 11.9191C41.0286 11.9482 41.0446 11.9731 41.0647 12.0022C41.0366 12.0229 41.0125 12.0146 40.9885 12.0146C40.2862 12.0146 39.5839 12.0146 38.8816 12.0146C38.8255 12.0146 38.7934 11.9939 38.7612 11.9482C37.9627 10.7895 37.1601 9.63493 36.3575 8.48038C36.197 8.24781 36.0284 8.01524 35.8599 7.77436L35.8639 7.7702Z" fill="black"/>
<path d="M46.9959 9.98389V10.2206C46.9959 10.6733 46.9959 11.126 46.9959 11.5787C46.9959 11.6368 46.9798 11.6659 46.9357 11.695C46.5906 11.9317 46.2053 12.0604 45.8 12.1227C45.0295 12.2349 44.259 12.2182 43.5046 12.0023C42.3569 11.67 41.6145 10.8934 41.2413 9.73055C41.0005 8.97885 40.9403 8.20638 40.9644 7.41729C40.9844 6.83171 41.0687 6.25859 41.2573 5.70623C41.5422 4.86315 42.0198 4.16959 42.7702 3.70029C43.2277 3.41373 43.7253 3.25176 44.255 3.19362C44.9653 3.11471 45.6716 3.15624 46.3699 3.33067C46.5665 3.38051 46.7591 3.44696 46.9397 3.54248C46.9758 3.55909 46.9959 3.57986 46.9959 3.62554C46.9959 4.1779 46.9959 4.7261 46.9959 5.27846C46.9959 5.28677 46.9959 5.29507 46.9919 5.30753C46.9798 5.30753 46.9678 5.30338 46.9598 5.29507C46.3779 4.95868 45.7478 4.79255 45.0857 4.78425C44.1627 4.77179 43.5247 5.25354 43.2357 6.15891C43.0431 6.76111 43.015 7.38407 43.0431 8.01118C43.0632 8.4431 43.1234 8.86671 43.2678 9.26956C43.5768 10.1417 44.1788 10.5695 45.0777 10.5612C45.7599 10.5612 46.402 10.3992 46.9718 9.99635C46.9758 9.9922 46.9879 9.9922 46.9999 9.98804L46.9959 9.98389Z" fill="black"/>
</g>
<defs>
<clipPath id="clip0_4_1890">
<rect width="47" height="14" fill="white"/>
</clipPath>
</defs>
</svg>
