<svg width="90" height="90" viewBox="0 0 90 90" fill="none" xmlns="http://www.w3.org/2000/svg">
<path d="M51.4688 53.2266C51.4688 53.2266 66.5297 40.3453 61.9734 11.25" stroke="#CCB14F"/>
<path d="M56.5735 58.0219C56.5735 58.0219 71.6344 50.9063 72.436 25.1438" stroke="#CCB14F"/>
<path d="M59.8218 62.2969C59.8218 62.2969 77.9624 54.1265 78.7499 38.6156" stroke="#CCB14F"/>
<path d="M39.825 45.4219C39.825 45.4219 42.7921 65.7141 68.7937 76.0781" stroke="#CCB14F"/>
<path d="M33.3563 47.7281C33.3563 47.7281 31.6266 65.1235 52.2422 78.75" stroke="#CCB14F"/>
<path d="M28.2515 48.5859C28.2515 48.5859 25.8468 69.3422 38.0952 77.8219" stroke="#CCB14F"/>
<path d="M50.7375 36.7453C50.7375 36.7453 32.6953 29.3344 11.25 48.0657" stroke="#CCB14F"/>
<path d="M52.0313 29.6578C52.0313 29.6578 38.7141 19.364 17.2969 31.5" stroke="#CCB14F"/>
<path d="M53.9438 24.525C53.9438 24.525 38.2219 11.8687 25.1719 18.9" stroke="#CCB14F"/>
</svg>
