<svg width="90" height="90" viewBox="0 0 90 90" fill="none" xmlns="http://www.w3.org/2000/svg">
<path d="M67.5843 15.2719C64.3704 14.2755 60.9603 14.0871 57.6562 14.7234C53.5449 15.6991 49.9665 18.2191 47.6627 21.7613C45.3588 25.3034 44.5061 29.5962 45.2812 33.75C45.6805 36.0238 46.5607 38.1861 47.863 40.0923C49.1653 41.9984 50.8597 43.6045 52.8327 44.8031L53.6765 45.3094C56.6355 47.1007 59.0628 49.6494 60.7077 52.6922C62.3675 55.6974 63.3288 59.0379 63.5202 62.4656" stroke="#CCB14F"/>
<path d="M37.3921 45.45C39.7388 43.7249 41.6491 41.4745 42.9701 38.8787C44.2912 36.283 44.9863 33.4141 44.9999 30.5016" stroke="#CCB14F"/>
<path d="M52.8328 44.7891C50.5648 43.6472 48.0545 43.07 45.5155 43.1068C42.9766 43.1435 40.484 43.793 38.25 45L37.3922 45.4641C34.3834 47.1261 30.9843 47.9516 27.5484 47.8547C23.85 47.7563 18.6609 45.8297 15.2578 44.2547" stroke="#CCB14F"/>
<path d="M45 78.75C22.5 61.875 11.25 47.8125 11.25 19.6875C11.25 19.6875 28.125 11.25 45 11.25C61.875 11.25 78.75 19.6875 78.75 19.6875C78.75 47.8125 67.5 61.875 45 78.75Z" stroke="#CCB14F"/>
</svg>
