<svg width="90" height="90" viewBox="0 0 90 90" fill="none" xmlns="http://www.w3.org/2000/svg">
<path d="M44.9999 26.7188L42.9749 30.7406C42.2541 32.1713 41.8787 33.7511 41.8787 35.3531C41.8787 36.9552 42.2541 38.5349 42.9749 39.9656L46.7999 47.7C47.6959 49.6448 48.1668 51.7583 48.1814 53.8995C48.1959 56.0407 47.7537 58.1604 46.8843 60.1172L45.4781 63.3797" stroke="#CCB14F"/>
<path d="M32.3438 30.5156L30.7407 33.75C30.1751 34.8808 29.8806 36.1278 29.8806 37.3922C29.8806 38.6566 30.1751 39.9036 30.7407 41.0344L33.75 47.0812C34.4591 48.6232 34.8321 50.2984 34.8442 51.9956C34.8563 53.6927 34.5073 55.373 33.8203 56.925L32.6813 59.4984" stroke="#CCB14F"/>
<path d="M57.6563 30.5156L56.0532 33.75C55.4876 34.8808 55.1931 36.1278 55.1931 37.3922C55.1931 38.6566 55.4876 39.9036 56.0532 41.0344L59.0625 47.0812C59.7605 48.6282 60.1215 50.306 60.1215 52.0031C60.1215 53.7003 59.7605 55.378 59.0625 56.925L57.9235 59.4984" stroke="#CCB14F"/>
<path d="M45 78.75C63.6396 78.75 78.75 63.6396 78.75 45C78.75 26.3604 63.6396 11.25 45 11.25C26.3604 11.25 11.25 26.3604 11.25 45C11.25 63.6396 26.3604 78.75 45 78.75Z" stroke="#CCB14F"/>
</svg>
